<?xml version="1.0" encoding="UTF-8"?>
<svg id="Calque_1" xmlns="http://www.w3.org/2000/svg" version="1.1" viewBox="0 0 10 10">
  <!-- Generator: Adobe Illustrator 29.8.3, SVG Export Plug-In . SVG Version: 2.1.1 Build 3)  -->
  <defs>
    <style>
      .st0 {
        fill: #1d1d1b;
        stroke: #000;
        stroke-miterlimit: 10;
        stroke-width: .2px;
      }
    </style>
  </defs>
  <g>
    <path class="st0" d="M8.6,8H1.6s-.1,0-.1,0,0,0,.1,0h7c0,0,.1,0,.1,0s0,0-.1,0Z"/>
    <path class="st0" d="M8.6,8H1.6c0,0-.1,0-.1-.1s0-.1.1-.1h7c0,0,.1,0,.1.1s0,.1-.1.1ZM1.6,7.8s0,0,0,0,0,0,0,0h7s0,0,0,0,0,0,0,0H1.6Z"/>
  </g>
  <g>
    <path class="st0" d="M3.5,7.2s0,0,0,0c0,0,0,0,0,0v-1.1c0,0,0,0,0,0L6.1,1.6s0,0,.1,0l1.1.7s0,0,0,0c0,0,0,0,0,0l-2.8,4.3s0,0,0,0l-1.1.4h0ZM3.5,6v1c0,0,1-.3,1-.3l2.7-4.2-1-.6-2.7,4.2ZM4.5,6.7h0Z"/>
    <path class="st0" d="M3.5,7.2s0,0,0,0c0,0,0,0,0-.1v-1.1c0,0,0,0,0,0L6.1,1.6s0,0,0,0c0,0,0,0,0,0l1.1.7s0,0,0,0c0,0,0,0,0,0l-2.8,4.3s0,0,0,0l-1.1.4h0,0ZM6.2,1.6h0s0,0,0,0l-2.8,4.3s0,0,0,0v1.1c0,0,0,0,0,0s0,0,0,0l1.1-.4s0,0,0,0l2.8-4.3s0,0,0,0c0,0,0,0,0,0l-1.1-.7h0ZM3.6,7h0s0,0,0,0v-1c0,0,0,0,0,0L6.2,1.8s0,0,0,0l1,.6s0,0,0,0h0s-2.7,4.2-2.7,4.2c0,0,0,0,0,0l-.9.3h0ZM3.5,6v.9c0,0,.9-.3.9-.3l2.7-4.1-.9-.6s-2.7,4.1-2.7,4.1ZM4.5,6.7s0,0,0,0,0,0,0,0h0s0,0,0,0,0,0,0,0Z"/>
  </g>
</svg>