<?xml version="1.0" encoding="UTF-8"?>
<svg id="Calque_1" xmlns="http://www.w3.org/2000/svg" version="1.1" viewBox="0 0 10 10">
  <!-- Generator: Adobe Illustrator 29.8.3, SVG Export Plug-In . SVG Version: 2.1.1 Build 3)  -->
  <defs>
    <style>
      .st0 {
        fill: #1d1d1b;
        stroke: #000;
        stroke-miterlimit: 10;
        stroke-width: .5px;
      }
    </style>
  </defs>
  <path class="st0" d="M5,9.5s0,0,0,0c0,0,0,0,0-.1v-4.1H.9c0,0,0,0-.1,0s0,0,0-.1c0,0,0-.2.1-.2h4V.8c0,0,0-.1.2-.1,0,0,.2,0,.2.2v4.1h4c0,0,.2,0,.2.1,0,0,0,.2-.1.2h-4v4.2c0,0,0,.1-.2.1h0Z"/>
</svg>