<?xml version="1.0" encoding="UTF-8"?>
<svg id="Calque_1" data-name="Calque 1" xmlns="http://www.w3.org/2000/svg" viewBox="0 0 10 10">
  <defs>
    <style>
      .cls-1 {
        fill: #1d1d1b;
      }
    </style>
  </defs>
  <path class="cls-1" d="M8.39,8.59s-.08.04-.12.04c-.05,0-.1-.02-.14-.06l-3.09-3.25-3.12,3.1s-.09.06-.14.06-.09-.01-.13-.04c-.08-.06-.08-.17-.01-.24l3.13-3.12L1.64,1.78c-.07-.07-.06-.18.02-.24.08-.06.2-.05.26.02l3.09,3.26,3.12-3.1c.07-.07.19-.08.26-.01.08.06.08.17.01.24l-3.13,3.12,3.14,3.3c.07.07.06.18-.02.24Z"/>
</svg>