<?xml version="1.0" encoding="UTF-8"?>
<svg id="Calque_1" data-name="Calque 1" xmlns="http://www.w3.org/2000/svg" viewBox="0 0 10 10">
  <defs>
    <style>
      .cls-1 {
        fill: #1d1d1b;
      }
    </style>
  </defs>
  <path class="cls-1" d="M7.91,7.11s0,0,0-.01c0,0,0,0,0,0,0,0,0-.01,0-.02,0,0,0-.01,0-.01,0,0,0,0,0,0,0,0,0,0,0,0,0,0,0,0-.01-.01,0,0-.01,0-.02,0,0,0-.01,0-.02,0,0,0-.01,0-.02,0,0,0,0,0-.01,0-.07.02-.15.04-.22.06-.14.04-.29.09-.43.09-1.61,0-2.92-1.31-2.92-2.92,0-.84.45-1.67,1.25-2.28.04-.03.04-.08.02-.12-.03-.04-.08-.04-.11-.02-.02-.01-.04-.02-.06-.01-1.51.24-2.61,1.52-2.61,3.06,0,1.71,1.39,3.1,3.1,3.1.77,0,1.51-.28,2.08-.8,0,0,0,0,0,0,0,0,0,0,.01-.01,0,0,0-.01,0-.02,0,0,0-.01,0-.02,0,0,0-.01,0-.02ZM2.88,4.89c0-1.38.94-2.54,2.26-2.85-.69.62-1.08,1.42-1.08,2.22,0,1.71,1.39,3.1,3.1,3.1.09,0,.18-.02.27-.04-.48.32-1.04.49-1.62.49-1.61,0-2.92-1.31-2.92-2.92Z"/>
  <path class="cls-1" d="M5.8,8.01c-1.73,0-3.13-1.4-3.13-3.13,0-1.55,1.11-2.85,2.64-3.09.02,0,.04,0,.06,0,.05-.02.11,0,.14.04.04.05.03.13-.02.17-.78.6-1.23,1.43-1.23,2.25,0,1.59,1.3,2.89,2.89,2.89.13,0,.28-.04.42-.09.07-.02.15-.05.23-.06,0,0,.01,0,.02,0,0,0,.01,0,.02,0,0,0,.02,0,.02,0,0,0,.01,0,.02,0,0,0,.01,0,.02.01,0,0,0,0,.01,0,0,0,0,0,0,.01,0,0,0,0,0,.01,0,0,0,.01.01.02,0,.01,0,.02,0,.02h0s0,.01,0,.02c0,0,0,.02,0,.02,0,0,0,.01,0,.02,0,0,0,.01-.01.02,0,0,0,0,0,.01-.58.52-1.32.81-2.1.81ZM5.33,1.86s0,0,0,0c-1.5.23-2.59,1.51-2.59,3.03,0,1.69,1.37,3.06,3.06,3.06.76,0,1.49-.28,2.06-.79,0,0,0,0,0,0,0,0,0,0,0,0,0,0,0,0,0,0,0,0,0,0,0,0,0,0,0,0,0-.01h0s0,0,0,0c0,0,0,0,0,0,0,0,0,0,0,0,0,0,0,0,0-.01,0,0,0,0,0,0,0,0,0,0,0,0,0,0,0,0,0,0,0,0,0,0,0,0,0,0,0,0,0,0,0,0,0,0-.01,0,0,0,0,0,0,0-.07.02-.15.04-.22.06-.14.04-.29.09-.44.09-1.63,0-2.96-1.33-2.96-2.96,0-.85.46-1.69,1.26-2.31.01,0,.02-.02.02-.04,0-.01,0-.03-.01-.04-.02-.02-.05-.03-.07-.01-.01,0-.02,0-.03,0,0,0-.02,0-.03,0ZM5.8,7.84c-1.63,0-2.96-1.33-2.96-2.96,0-1.38.94-2.57,2.28-2.88.01,0,.03,0,.04.02,0,.01,0,.03,0,.04-.69.62-1.07,1.4-1.07,2.2,0,1.69,1.37,3.06,3.06,3.06.08,0,.16-.01.26-.04.02,0,.03,0,.04.02,0,.01,0,.03-.01.04-.49.32-1.05.49-1.63.49ZM5.02,2.1c-1.25.34-2.11,1.47-2.11,2.78,0,1.59,1.3,2.89,2.89,2.89.51,0,1.01-.14,1.45-.39-.04,0-.07,0-.1,0-1.73,0-3.13-1.4-3.13-3.13,0-.78.35-1.54,1-2.16Z"/>
</svg>