<?xml version="1.0" encoding="UTF-8"?>
<svg id="Calque_1" data-name="Calque 1" xmlns="http://www.w3.org/2000/svg" viewBox="0 0 10 10">
  <defs>
    <style>
      .cls-1 {
        fill: #1d1d1b;
      }
    </style>
  </defs>
  <g>
    <path class="cls-1" d="M4.38,7.12c-1.66,0-3.01-1.35-3.01-3.01s1.35-3.01,3.01-3.01,3.01,1.35,3.01,3.01-1.35,3.01-3.01,3.01ZM4.38,1.32c-1.54,0-2.79,1.25-2.79,2.79s1.25,2.79,2.79,2.79,2.79-1.25,2.79-2.79-1.25-2.79-2.79-2.79Z"/>
    <path class="cls-1" d="M4.38,7.16c-1.68,0-3.05-1.37-3.05-3.05s1.37-3.05,3.05-3.05,3.05,1.37,3.05,3.05-1.37,3.05-3.05,3.05ZM4.38,1.15c-1.64,0-2.97,1.33-2.97,2.97s1.33,2.97,2.97,2.97,2.97-1.33,2.97-2.97-1.33-2.97-2.97-2.97ZM4.38,6.95c-1.56,0-2.83-1.27-2.83-2.83s1.27-2.83,2.83-2.83,2.83,1.27,2.83,2.83-1.27,2.83-2.83,2.83ZM4.38,1.36c-1.52,0-2.75,1.23-2.75,2.75s1.23,2.75,2.75,2.75,2.75-1.23,2.75-2.75-1.23-2.75-2.75-2.75Z"/>
  </g>
  <g>
    <path class="cls-1" d="M8.17,9.03s-.06-.01-.08-.04l-2.09-2.46s-.03-.11.01-.15c.05-.04.11-.03.15.01l2.09,2.46s.03.11-.01.15c-.02.02-.05.03-.07.03Z"/>
    <path class="cls-1" d="M8.17,9.07s-.08-.02-.11-.05l-2.09-2.46c-.05-.06-.05-.16.02-.21.06-.05.16-.05.21.02l2.09,2.46c.05.06.05.16-.02.21-.03.02-.06.04-.1.04ZM6.08,6.4s-.03,0-.04.02c-.03.02-.03.07,0,.09l2.09,2.46s.07.03.09,0c.03-.02.03-.07,0-.09l-2.09-2.46s-.03-.02-.05-.02Z"/>
  </g>
</svg>