<?xml version="1.0" encoding="UTF-8"?>
<svg id="Calque_1" data-name="Calque 1" xmlns="http://www.w3.org/2000/svg" viewBox="0 0 10 10">
  <defs>
    <style>
      .cls-1 {
        fill: #1d1d1b;
      }
    </style>
  </defs>
  <g>
    <path class="cls-1" d="M5,1.23c-1.07,0-1.94.88-1.94,1.95,0,.66.34,1.25.85,1.6.01.01.02.02.04.03,0,0,.02,0,.04.02.04.03.1.06.15.08h0s.02.02.04.03c.01.01.02.01.04.02.02,0,.04-.01.06-.02.08-.03.17-.05.26-.07.02-.01.04-.01.06-.01-.02-.01-.05-.02-.07-.03-.03,0-.05-.01-.08-.02-.07-.02-.14-.05-.2-.09-.02,0-.04-.01-.05-.02-.02,0-.04-.01-.05-.03-.53-.29-.88-.85-.88-1.49,0-.95.77-1.73,1.72-1.73s1.72.78,1.72,1.73c0,.63-.34,1.18-.85,1.48-.01.01-.02.02-.04.02-.01,0-.03.02-.05.02-.06.04-.13.07-.2.09-.02.02-.05.03-.08.03-.03.01-.05.02-.08.03.02-.01.05,0,.07.01h.01c.09.01.17.04.25.06.02.01.04.01.05.02.02,0,.04,0,.05-.02.02-.01.04-.02.05-.03.06-.02.11-.06.16-.09.01-.01.02-.01.03-.02.01-.01.02-.01.03-.03.5-.34.82-.92.82-1.57,0-1.07-.87-1.95-1.94-1.95Z"/>
    <path class="cls-1" d="M5,1.41c-.97,0-1.76.79-1.76,1.77,0,.65.35,1.22.88,1.51.01.02.03.03.04.03.02.02.03.02.05.02.06.04.12.07.18.08.03.02.05.03.08.03.03.02.05.02.08.02.02-.01.04-.01.06-.01.04-.01.08-.02.12-.02-.04-.01-.08-.02-.11-.02-.03,0-.06-.02-.08-.03-.08-.02-.16-.05-.23-.08-.02-.01-.03-.01-.05-.03-.01,0-.03-.01-.04-.02-.54-.28-.9-.84-.9-1.48,0-.93.75-1.69,1.68-1.69s1.68.76,1.68,1.69c0,.63-.35,1.18-.86,1.46-.01.01-.02.02-.03.02h-.01s-.03.02-.05.03c-.07.04-.15.07-.23.09-.03.01-.05.02-.08.03-.02,0-.05,0-.08.02.03,0,.05.01.08.02.02-.01.05,0,.07.01h.01s.05-.01.07-.02c.03,0,.05-.01.08-.03.06-.02.13-.05.19-.09.01,0,.03-.01.04-.02.02,0,.03-.01.05-.03.5-.31.84-.86.84-1.49,0-.98-.8-1.77-1.77-1.77ZM5,1.19c-1.09,0-1.98.89-1.98,1.99,0,.67.34,1.27.85,1.63.01,0,.02,0,.03.02.01.01.03.02.04.02.05.03.1.06.15.09.01.01.03.01.05.02,0,.01.02.02.04.02.01,0,.03-.01.05-.02.02,0,.04-.01.06-.02-.02,0-.03,0-.05-.02s-.04-.01-.05-.03c-.06-.02-.11-.05-.16-.08-.02,0-.03-.01-.04-.02-.02-.01-.03-.02-.04-.02-.51-.35-.85-.93-.85-1.59,0-1.05.85-1.9,1.9-1.9s1.9.85,1.9,1.9c0,.64-.32,1.21-.81,1.56,0,0-.02.01-.04.02-.01.01-.02.01-.03.02h0c-.05.04-.1.07-.16.09-.02.02-.03.03-.05.03-.01.01-.03.02-.05.02.02.01.04.01.05.02.02.01.04.01.06.02.02,0,.03-.01.04-.02.02,0,.04,0,.05-.03.05-.02.1-.05.15-.09.01,0,.02,0,.03-.02.01,0,.03-.01.04-.02.49-.36.81-.95.81-1.6,0-1.1-.89-1.99-1.98-1.99ZM5.88,4.7s.03-.01.05-.03c.5-.31.84-.86.84-1.49,0-.98-.8-1.77-1.77-1.77s-1.76.79-1.76,1.77c0,.65.35,1.22.88,1.51.01.02.03.03.04.03.02.02.03.02.05.02.06.04.12.07.18.08.03.02.05.03.08.03.03.02.05.02.08.02.02-.01.04-.01.06-.01.04-.01.08-.02.12-.02-.04-.01-.08-.02-.11-.02-.03,0-.06-.02-.08-.03-.08-.02-.16-.05-.23-.08-.02-.01-.03-.01-.05-.03-.01,0-.03-.01-.04-.02-.54-.28-.9-.84-.9-1.48,0-.93.75-1.69,1.68-1.69s1.68.76,1.68,1.69c0,.63-.35,1.18-.86,1.46-.01.01-.02.02-.03.02h-.01s-.03.02-.05.03c-.07.04-.15.07-.23.09-.03.01-.05.02-.08.03-.02,0-.05,0-.08.02.03,0,.05.01.08.02.02-.01.05,0,.07.01h.01s.05-.01.07-.02c.03,0,.05-.01.08-.03.06-.02.13-.05.19-.09.01,0,.03-.01.04-.02ZM5,1.41c-.97,0-1.76.79-1.76,1.77,0,.65.35,1.22.88,1.51.01.02.03.03.04.03.02.02.03.02.05.02.06.04.12.07.18.08.03.02.05.03.08.03.03.02.05.02.08.02.02-.01.04-.01.06-.01.04-.01.08-.02.12-.02-.04-.01-.08-.02-.11-.02-.03,0-.06-.02-.08-.03-.08-.02-.16-.05-.23-.08-.02-.01-.03-.01-.05-.03-.01,0-.03-.01-.04-.02-.54-.28-.9-.84-.9-1.48,0-.93.75-1.69,1.68-1.69s1.68.76,1.68,1.69c0,.63-.35,1.18-.86,1.46-.01.01-.02.02-.03.02h-.01s-.03.02-.05.03c-.07.04-.15.07-.23.09-.03.01-.05.02-.08.03-.02,0-.05,0-.08.02.03,0,.05.01.08.02.02-.01.05,0,.07.01h.01s.05-.01.07-.02c.03,0,.05-.01.08-.03.06-.02.13-.05.19-.09.01,0,.03-.01.04-.02.02,0,.03-.01.05-.03.5-.31.84-.86.84-1.49,0-.98-.8-1.77-1.77-1.77ZM5,1.41c-.97,0-1.76.79-1.76,1.77,0,.65.35,1.22.88,1.51.01.02.03.03.04.03.02.02.03.02.05.02.06.04.12.07.18.08.03.02.05.03.08.03.03.02.05.02.08.02.02-.01.04-.01.06-.01.04-.01.08-.02.12-.02-.04-.01-.08-.02-.11-.02-.03,0-.06-.02-.08-.03-.08-.02-.16-.05-.23-.08-.02-.01-.03-.01-.05-.03-.01,0-.03-.01-.04-.02-.54-.28-.9-.84-.9-1.48,0-.93.75-1.69,1.68-1.69s1.68.76,1.68,1.69c0,.63-.35,1.18-.86,1.46-.01.01-.02.02-.03.02h-.01s-.03.02-.05.03c-.07.04-.15.07-.23.09-.03.01-.05.02-.08.03-.02,0-.05,0-.08.02.03,0,.05.01.08.02.02-.01.05,0,.07.01h.01s.05-.01.07-.02c.03,0,.05-.01.08-.03.06-.02.13-.05.19-.09.01,0,.03-.01.04-.02.02,0,.03-.01.05-.03.5-.31.84-.86.84-1.49,0-.98-.8-1.77-1.77-1.77Z"/>
  </g>
  <g>
    <path class="cls-1" d="M6.13,4.8s-.03-.01-.04-.02c0-.01-.03-.01-.04-.02-.06-.02-.11-.05-.17-.06-.02-.01-.04-.02-.05-.02-.02-.01-.03-.01-.04-.02h-.01s-.03.02-.05.03c-.07.04-.15.07-.23.09-.03.01-.05.02-.08.03.03,0,.06,0,.08,0,.03,0,.05.01.07.02.08.01.16.03.23.06.02,0,.03.01.05.02.02,0,.03.01.05.02.83.34,1.42,1.15,1.42,2.1v1.54H2.77v-1.54c0-.93.56-1.73,1.37-2.08.02-.01.04-.02.05-.02.02,0,.03-.02.05-.02.08-.03.15-.06.23-.07.02-.01.05-.02.07-.02.03-.01.05-.02.08-.01-.03,0-.06-.02-.08-.03-.08-.02-.16-.05-.23-.08-.02-.01-.03-.01-.05-.03-.02,0-.04,0-.05.02-.02,0-.03.01-.05.02-.06.01-.11.04-.17.07-.01,0-.03.01-.04.02-.02,0-.04,0-.05.02-.8.42-1.35,1.25-1.35,2.21v1.65c0,.06.05.11.11.11h4.77c.06,0,.11-.05.11-.11v-1.65c0-.98-.58-1.84-1.41-2.24Z"/>
    <path class="cls-1" d="M5.95,4.91s-.04-.01-.05-.02c-.02,0-.04-.01-.05-.02-.07-.02-.13-.04-.2-.06-.03-.01-.05-.01-.07-.02-.03-.01-.06-.01-.08-.01-.03.01-.05.02-.08.03-.02,0-.05,0-.08.02.03,0,.05.01.08.02.02-.01.05,0,.07.01h.01c.09.01.17.04.25.06.02.01.04.01.05.02.02.01.04.01.06.02.83.33,1.42,1.14,1.42,2.08v1.5H2.81v-1.5c0-.92.57-1.72,1.37-2.06.01,0,.03-.01.05-.02.02,0,.04-.01.06-.02.08-.03.17-.05.26-.07.02-.01.04-.01.06-.01.04-.01.08-.02.12-.02-.04-.01-.08-.02-.11-.02-.03,0-.06-.02-.08-.03-.03,0-.05.01-.08.02-.02,0-.05,0-.07,0-.07.03-.14.05-.2.07-.02.01-.03.02-.04.02h0s-.04.02-.05.03c-.8.36-1.36,1.17-1.36,2.1v1.54s.02.04.04.04h4.55s.04-.01.04-.04v-1.54c0-.95-.59-1.78-1.41-2.13ZM6.17,4.78s-.03-.02-.05-.03c-.01,0-.02-.01-.03-.01-.05-.03-.1-.05-.16-.07-.02-.01-.04-.01-.06-.01-.01-.02-.03-.02-.05-.02-.01.01-.02.02-.03.02h-.01s-.03.02-.05.03c.02,0,.03,0,.05.01.02.01.04.01.06.02.06.02.11.04.17.06h0s.02.02.04.02c.01.01.02.02.04.02.82.4,1.4,1.24,1.4,2.22v1.65s-.03.07-.07.07H2.66s-.07-.03-.07-.07v-1.65c0-.95.55-1.78,1.35-2.19.02-.01.03-.02.05-.02.01-.01.03-.02.04-.02.06-.03.12-.05.18-.07.01-.01.03-.02.05-.02,0-.01.03-.01.05-.01-.02-.01-.03-.01-.05-.03-.01,0-.03-.01-.04-.02-.02,0-.04,0-.06.01-.01.01-.03.01-.04.02-.06.02-.12.05-.17.08-.02,0-.03.01-.04.01-.02.01-.03.02-.04.03-.81.42-1.36,1.26-1.36,2.23v1.65c0,.09.07.15.15.15h4.77c.09,0,.15-.06.15-.15v-1.65c0-.99-.57-1.85-1.41-2.26ZM4.15,4.91h0s-.04.02-.05.03c-.8.36-1.36,1.17-1.36,2.1v1.54s.02.04.04.04h4.55s.04-.01.04-.04v-1.54c0-.95-.59-1.78-1.41-2.13-.02,0-.04-.01-.05-.02-.02,0-.04-.01-.05-.02-.07-.02-.13-.04-.2-.06-.03-.01-.05-.01-.07-.02-.03-.01-.06-.01-.08-.01-.03.01-.05.02-.08.03-.02,0-.05,0-.08.02.03,0,.05.01.08.02.02-.01.05,0,.07.01h.01c.09.01.17.04.25.06.02.01.04.01.05.02.02.01.04.01.06.02.83.33,1.42,1.14,1.42,2.08v1.5H2.81v-1.5c0-.92.57-1.72,1.37-2.06.01,0,.03-.01.05-.02.02,0,.04-.01.06-.02.08-.03.17-.05.26-.07.02-.01.04-.01.06-.01.04-.01.08-.02.12-.02-.04-.01-.08-.02-.11-.02-.03,0-.06-.02-.08-.03-.03,0-.05.01-.08.02-.02,0-.05,0-.07,0-.07.03-.14.05-.2.07-.02.01-.03.02-.04.02ZM5.95,4.91s-.04-.01-.05-.02c-.02,0-.04-.01-.05-.02-.07-.02-.13-.04-.2-.06-.03-.01-.05-.01-.07-.02-.03-.01-.06-.01-.08-.01-.03.01-.05.02-.08.03-.02,0-.05,0-.08.02.03,0,.05.01.08.02.02-.01.05,0,.07.01h.01c.09.01.17.04.25.06.02.01.04.01.05.02.02.01.04.01.06.02.83.33,1.42,1.14,1.42,2.08v1.5H2.81v-1.5c0-.92.57-1.72,1.37-2.06.01,0,.03-.01.05-.02.02,0,.04-.01.06-.02.08-.03.17-.05.26-.07.02-.01.04-.01.06-.01.04-.01.08-.02.12-.02-.04-.01-.08-.02-.11-.02-.03,0-.06-.02-.08-.03-.03,0-.05.01-.08.02-.02,0-.05,0-.07,0-.07.03-.14.05-.2.07-.02.01-.03.02-.04.02h0s-.04.02-.05.03c-.8.36-1.36,1.17-1.36,2.1v1.54s.02.04.04.04h4.55s.04-.01.04-.04v-1.54c0-.95-.59-1.78-1.41-2.13ZM5.95,4.91s-.04-.01-.05-.02c-.02,0-.04-.01-.05-.02-.07-.02-.13-.04-.2-.06-.03-.01-.05-.01-.07-.02-.03-.01-.06-.01-.08-.01-.03.01-.05.02-.08.03-.02,0-.05,0-.08.02.03,0,.05.01.08.02.02-.01.05,0,.07.01h.01c.09.01.17.04.25.06.02.01.04.01.05.02.02.01.04.01.06.02.83.33,1.42,1.14,1.42,2.08v1.5H2.81v-1.5c0-.92.57-1.72,1.37-2.06.01,0,.03-.01.05-.02.02,0,.04-.01.06-.02.08-.03.17-.05.26-.07.02-.01.04-.01.06-.01.04-.01.08-.02.12-.02-.04-.01-.08-.02-.11-.02-.03,0-.06-.02-.08-.03-.03,0-.05.01-.08.02-.02,0-.05,0-.07,0-.07.03-.14.05-.2.07-.02.01-.03.02-.04.02h0s-.04.02-.05.03c-.8.36-1.36,1.17-1.36,2.1v1.54s.02.04.04.04h4.55s.04-.01.04-.04v-1.54c0-.95-.59-1.78-1.41-2.13Z"/>
  </g>
</svg>