<?xml version="1.0" encoding="UTF-8"?>
<svg id="Calque_1" data-name="Calque 1" xmlns="http://www.w3.org/2000/svg" viewBox="0 0 10 10">
  <defs>
    <style>
      .cls-1 {
        fill: #1d1d1b;
      }
    </style>
  </defs>
  <g>
    <path class="cls-1" d="M5.09,7.05c-1.31,0-2.37-1.06-2.37-2.37s1.06-2.37,2.37-2.37,2.37,1.06,2.37,2.37-1.06,2.37-2.37,2.37ZM5.09,2.52c-1.19,0-2.16.97-2.16,2.16s.97,2.16,2.16,2.16,2.16-.97,2.16-2.16-.97-2.16-2.16-2.16Z"/>
    <path class="cls-1" d="M5.09,7.09c-1.33,0-2.41-1.08-2.41-2.41s1.08-2.41,2.41-2.41,2.41,1.08,2.41,2.41-1.08,2.41-2.41,2.41ZM5.09,2.35c-1.29,0-2.33,1.05-2.33,2.33s1.05,2.33,2.33,2.33,2.33-1.05,2.33-2.33-1.05-2.33-2.33-2.33ZM5.09,6.88c-1.21,0-2.2-.99-2.2-2.2s.99-2.2,2.2-2.2,2.2.99,2.2,2.2-.99,2.2-2.2,2.2ZM5.09,2.56c-1.17,0-2.12.95-2.12,2.12s.95,2.12,2.12,2.12,2.12-.95,2.12-2.12-.95-2.12-2.12-2.12Z"/>
  </g>
  <g>
    <path class="cls-1" d="M5.09,2.01c-.06,0-.1-.05-.1-.1v-.82c0-.06.05-.1.1-.1s.1.05.1.1v.82c0,.06-.05.1-.1.1Z"/>
    <path class="cls-1" d="M5.09,2.05c-.08,0-.14-.06-.14-.14v-.82c0-.08.06-.14.14-.14s.14.06.14.14v.82c0,.08-.06.14-.14.14ZM5.09,1.01s-.06.03-.06.06v.82s.03.06.06.06.06-.03.06-.06v-.82s-.03-.06-.06-.06Z"/>
  </g>
  <g>
    <path class="cls-1" d="M5.09,8.47c-.06,0-.1-.05-.1-.1v-.82c0-.06.05-.1.1-.1s.1.05.1.1v.82c0,.06-.05.1-.1.1Z"/>
    <path class="cls-1" d="M5.09,8.5c-.08,0-.14-.06-.14-.14v-.82c0-.08.06-.14.14-.14s.14.06.14.14v.82c0,.08-.06.14-.14.14ZM5.09,7.47s-.06.03-.06.06v.82s.03.06.06.06.06-.03.06-.06v-.82s-.03-.06-.06-.06Z"/>
  </g>
  <g>
    <path class="cls-1" d="M7.08,2.83s-.05-.01-.07-.03c-.04-.04-.04-.11,0-.15l.58-.58s.11-.04.15,0,.04.11,0,.15l-.58.58s-.05.03-.07.03Z"/>
    <path class="cls-1" d="M7.08,2.87s-.07-.01-.1-.04c-.06-.06-.06-.15,0-.2l.58-.58c.06-.06.15-.06.2,0,.06.06.06.15,0,.2l-.58.58s-.06.04-.1.04ZM7.66,2.08s-.03,0-.05.02l-.58.58s-.03.07,0,.09c.02.02.07.02.09,0l.58-.58s.03-.07,0-.09c-.01-.01-.03-.02-.05-.02Z"/>
  </g>
  <g>
    <path class="cls-1" d="M2.51,7.4s-.05-.01-.07-.03c-.04-.04-.04-.11,0-.15l.58-.58s.11-.04.15,0c.04.04.04.11,0,.15l-.58.58s-.05.03-.07.03Z"/>
    <path class="cls-1" d="M2.51,7.44s-.07-.01-.1-.04c-.06-.06-.06-.15,0-.2l.58-.58c.06-.06.15-.06.2,0,.06.06.06.15,0,.2l-.58.58s-.06.04-.1.04ZM3.1,6.65s-.03,0-.05.02l-.58.58s-.03.07,0,.09c.02.02.07.02.09,0l.58-.58s.02-.03.02-.05,0-.03-.02-.05c-.01-.01-.03-.02-.05-.02Z"/>
  </g>
  <g>
    <path class="cls-1" d="M8.73,4.82h-.82c-.06,0-.1-.05-.1-.1s.05-.1.1-.1h.82c.06,0,.1.05.1.1s-.05.1-.1.1Z"/>
    <path class="cls-1" d="M8.73,4.86h-.82c-.08,0-.14-.06-.14-.14s.06-.14.14-.14h.82c.08,0,.14.06.14.14s-.06.14-.14.14ZM7.9,4.65s-.06.03-.06.06.03.06.06.06h.82s.06-.03.06-.06-.03-.06-.06-.06h-.82Z"/>
  </g>
  <g>
    <path class="cls-1" d="M2.27,4.82h-.82c-.06,0-.1-.05-.1-.1s.05-.1.1-.1h.82c.06,0,.1.05.1.1s-.05.1-.1.1Z"/>
    <path class="cls-1" d="M2.27,4.86h-.82c-.08,0-.14-.06-.14-.14s.06-.14.14-.14h.82c.08,0,.14.06.14.14s-.06.14-.14.14ZM1.45,4.65s-.06.03-.06.06.03.06.06.06h.82s.06-.03.06-.06-.03-.06-.06-.06h-.82Z"/>
  </g>
  <g>
    <path class="cls-1" d="M7.66,7.4s-.05-.01-.07-.03l-.58-.58s-.04-.11,0-.15c.04-.04.11-.04.15,0l.58.58s.04.11,0,.15c-.02.02-.05.03-.07.03Z"/>
    <path class="cls-1" d="M7.66,7.44s-.07-.01-.1-.04l-.58-.58c-.06-.06-.06-.15,0-.2.06-.06.15-.06.2,0l.58.58c.06.06.06.15,0,.2-.03.03-.06.04-.1.04ZM7.08,6.65s-.03,0-.05.02c-.01.01-.02.03-.02.05s0,.03.02.05l.58.58s.07.02.09,0c.03-.03.03-.07,0-.09l-.58-.58s-.03-.02-.05-.02Z"/>
  </g>
  <g>
    <path class="cls-1" d="M3.1,2.83s-.05-.01-.07-.03l-.58-.58s-.04-.11,0-.15.11-.04.15,0l.58.58s.04.11,0,.15c-.02.02-.05.03-.07.03Z"/>
    <path class="cls-1" d="M3.1,2.87s-.07-.01-.1-.04l-.58-.58c-.06-.06-.06-.15,0-.2.06-.06.15-.06.2,0l.58.58c.06.06.06.15,0,.2-.03.03-.06.04-.1.04ZM2.51,2.08s-.03,0-.05.02c-.03.03-.03.07,0,.09l.58.58s.07.02.09,0c.03-.03.03-.07,0-.09l-.58-.58s-.03-.02-.05-.02Z"/>
  </g>
</svg>